<svg xmlns="http://www.w3.org/2000/svg" viewBox="0 0 32 32" width="32" height="32">
  <!-- Blue rounded square background (matches bg-blue-600) -->
  <rect width="32" height="32" rx="7" fill="#2563eb"/>
  <!-- Hospital lucide icon, scaled and centered in white -->
  <g transform="translate(6,5) scale(0.844)" stroke="white" stroke-width="1.6" stroke-linecap="round" stroke-linejoin="round" fill="none">
    <!-- Building outline -->
    <path d="M12 6v4"/>
    <path d="M14 8h-4"/>
    <!-- Hospital cross -->
    <path d="M3 21h18"/>
    <path d="M5 21V7a2 2 0 0 1 2-2h10a2 2 0 0 1 2 2v14"/>
    <!-- Door -->
    <path d="M9 21v-4a2 2 0 0 1 2-2h2a2 2 0 0 1 2 2v4"/>
    <!-- Windows -->
    <rect x="7" y="9" width="2" height="2"/>
    <rect x="15" y="9" width="2" height="2"/>
    <rect x="7" y="13" width="2" height="2"/>
    <rect x="15" y="13" width="2" height="2"/>
  </g>
</svg>
